<?xml version="1.0" standalone="no"?>
<!DOCTYPE svg PUBLIC "-//W3C//DTD SVG 20010904//EN"
 "http://www.w3.org/TR/2001/REC-SVG-20010904/DTD/svg10.dtd">
<svg version="1.0" xmlns="http://www.w3.org/2000/svg"
 width="576.000000pt" height="576.000000pt" viewBox="0 0 576.000000 576.000000"
 preserveAspectRatio="xMidYMid meet">
<metadata>
Created by potrace 1.11, written by Peter Selinger 2001-2013
</metadata>
<g transform="translate(0.000000,576.000000) scale(0.100000,-0.100000)"
fill="#000000" stroke="none">
<path d="M0 2880 l0 -2880 2880 0 2880 0 0 2880 0 2880 -2880 0 -2880 0 0
-2880z m3118 1890 c444 -47 801 -244 1049 -580 60 -82 107 -170 96 -181 -5 -5
-164 -128 -354 -273 -273 -210 -346 -262 -354 -251 -5 8 -26 43 -45 77 -46 84
-186 224 -272 272 -223 125 -459 121 -651 -11 -224 -153 -357 -458 -357 -823
0 -210 36 -376 116 -531 93 -181 228 -300 403 -356 72 -23 243 -28 329 -10
146 32 305 123 430 249 l73 73 -305 3 -306 2 0 345 0 345 720 0 720 0 0 -930
0 -930 -400 0 -400 0 0 141 0 141 -52 -44 c-144 -120 -268 -184 -438 -230
-112 -29 -355 -36 -491 -13 -332 55 -685 262 -917 536 -486 573 -597 1393
-277 2040 317 641 983 1013 1683 939z"/>
</g>
</svg>
