<?xml version="1.0" standalone="no"?>
<!DOCTYPE svg PUBLIC "-//W3C//DTD SVG 20010904//EN"
 "http://www.w3.org/TR/2001/REC-SVG-20010904/DTD/svg10.dtd">
<svg version="1.0" xmlns="http://www.w3.org/2000/svg"
 width="192.000000pt" height="192.000000pt" viewBox="0 0 192.000000 192.000000"
 preserveAspectRatio="xMidYMid meet">
<metadata>
Created by potrace 1.11, written by Peter Selinger 2001-2013
</metadata>
<g transform="translate(0.000000,192.000000) scale(0.100000,-0.100000)"
fill="#000000" stroke="none">
<path d="M918 1718 c-128 -16 -222 -93 -268 -218 -18 -50 -19 -79 -17 -494 l2
-441 27 -58 c50 -106 166 -204 278 -234 46 -13 151 -8 181 8 13 7 25 12 27 11
1 -1 17 4 35 12 30 13 127 96 113 96 -4 0 0 7 8 16 38 38 50 119 52 369 l2
240 -31 33 -31 32 -178 0 -178 0 0 -84 c0 -79 2 -87 29 -116 27 -30 76 -46 87
-29 3 5 14 5 24 -1 17 -9 18 -22 16 -132 -1 -75 -7 -132 -15 -146 -31 -57
-131 -82 -171 -42 -19 19 -20 33 -20 425 0 435 0 436 52 479 26 23 119 29 139
9 7 -7 13 -40 15 -74 2 -53 6 -66 32 -91 31 -31 34 -32 198 -29 l32 1 -4 66
c-6 132 -33 191 -127 282 -98 94 -189 126 -309 110z"/>
</g>
</svg>
