<?xml version="1.0" standalone="no"?>
<!DOCTYPE svg PUBLIC "-//W3C//DTD SVG 20010904//EN"
 "http://www.w3.org/TR/2001/REC-SVG-20010904/DTD/svg10.dtd">
<svg version="1.0" xmlns="http://www.w3.org/2000/svg"
 width="1600.000000pt" height="1600.000000pt" viewBox="0 0 1600.000000 1600.000000"
 preserveAspectRatio="xMidYMid meet">
<metadata>
Created by potrace 1.11, written by Peter Selinger 2001-2013
</metadata>
<g transform="translate(0.000000,1600.000000) scale(0.100000,-0.100000)"
fill="#000000" stroke="none">
<path d="M7590 14669 c-975 -61 -1719 -311 -2247 -754 -282 -237 -515 -569
-622 -887 l-28 -83 -154 -7 c-280 -12 -469 -88 -639 -258 -370 -369 -335 -979
74 -1308 116 -93 321 -182 419 -182 20 0 27 -4 24 -12 -3 -7 -22 -50 -41 -96
-135 -314 -192 -596 -153 -749 40 -153 152 -290 314 -380 l58 -33 158 0 c119
0 157 -3 157 -12 0 -7 -13 -173 -30 -368 -92 -1110 -116 -1705 -99 -2460 36
-1678 290 -3211 701 -4238 38 -96 67 -176 64 -179 -9 -9 -321 122 -496 208
-392 193 -686 404 -905 650 -31 35 -61 65 -65 67 -17 6 -261 -207 -412 -360
-87 -88 -158 -163 -158 -166 1 -13 296 -321 419 -437 817 -768 1830 -1290
2931 -1509 386 -77 390 -77 1216 -73 l739 3 155 26 c1113 190 2072 628 2910
1330 216 181 565 524 667 655 l25 33 -51 59 c-118 136 -498 481 -530 481 -5 0
-15 -10 -24 -22 -27 -42 -129 -151 -215 -231 -215 -199 -436 -345 -762 -506
-206 -101 -544 -240 -556 -228 -2 1 30 83 70 182 326 806 555 1871 665 3090
56 614 74 1007 74 1640 1 779 -34 1510 -109 2298 l-7 67 163 0 164 0 65 39
c129 77 228 186 278 306 41 98 46 231 13 393 -16 79 -100 329 -147 437 l-39
89 91 23 c355 90 610 385 657 760 36 285 -93 595 -324 778 -171 135 -358 195
-607 195 l-117 0 -23 71 c-13 40 -51 128 -86 198 -180 359 -447 651 -811 888
-471 306 -1065 489 -1814 558 -199 19 -797 27 -1000 14z m2554 -3561 c-74
-214 -111 -493 -85 -633 44 -239 280 -422 674 -525 79 -21 88 -25 83 -44 -9
-38 -94 -485 -191 -1006 -187 -1004 -296 -1473 -381 -1641 -55 -110 -254 -323
-408 -437 -90 -68 -196 -136 -201 -130 -1 2 -12 37 -24 78 -73 246 -236 460
-459 600 -246 155 -531 232 -864 234 -164 1 -178 0 -205 -20 -68 -51 -56 -124
62 -362 102 -204 98 -201 294 -237 194 -36 285 -77 399 -180 64 -58 96 -109
127 -200 28 -83 55 -199 47 -206 -9 -9 -131 -45 -214 -63 -352 -80 -830 -87
-1228 -20 -245 41 -559 146 -560 186 0 30 61 192 88 231 34 51 163 154 236
188 57 27 116 43 281 74 126 24 142 36 202 145 125 225 168 366 130 424 -28
41 -74 49 -251 43 -556 -20 -988 -236 -1198 -599 -26 -45 -60 -113 -75 -152
-15 -39 -28 -72 -29 -74 -4 -6 -86 38 -154 82 -157 102 -328 271 -440 437
-150 220 -261 688 -450 1894 -45 286 -91 568 -104 626 l-22 107 99 26 c335 88
574 254 642 446 52 147 27 436 -60 689 -14 41 -25 78 -25 83 0 4 965 8 2144 8
l2145 0 -25 -72z"/>
<path d="M6475 10411 c-44 -19 -70 -60 -70 -112 0 -42 5 -53 33 -81 l32 -33
550 0 550 0 32 33 c28 28 33 39 33 82 0 43 -5 54 -33 82 l-32 33 -538 2 c-295
1 -546 -2 -557 -6z"/>
<path d="M8435 10411 c-44 -19 -70 -60 -70 -112 0 -42 5 -53 33 -81 l32 -33
550 0 550 0 32 33 c28 28 33 39 33 82 0 43 -5 54 -33 82 l-32 33 -538 2 c-295
1 -546 -2 -557 -6z"/>
<path d="M6860 9413 c-151 -79 -160 -289 -16 -377 143 -89 322 4 334 172 8
119 -83 221 -206 230 -48 3 -66 -1 -112 -25z"/>
<path d="M8940 9413 c-151 -79 -160 -289 -16 -377 143 -89 322 4 334 172 8
119 -83 221 -206 230 -48 3 -66 -1 -112 -25z"/>
</g>
</svg>
