<?xml version="1.0" standalone="no"?>
<!DOCTYPE svg PUBLIC "-//W3C//DTD SVG 20010904//EN"
 "http://www.w3.org/TR/2001/REC-SVG-20010904/DTD/svg10.dtd">
<svg version="1.0" xmlns="http://www.w3.org/2000/svg"
 width="512.000000pt" height="512.000000pt" viewBox="0 0 512.000000 512.000000"
 preserveAspectRatio="xMidYMid meet">
<metadata>
Created by potrace 1.11, written by Peter Selinger 2001-2013
</metadata>
<g transform="translate(0.000000,512.000000) scale(0.100000,-0.100000)"
fill="#000000" stroke="none">
<path d="M2469 4320 c-312 -37 -562 -224 -669 -502 -60 -156 -61 -176 -57
-1282 4 -1134 -2 -1057 87 -1242 99 -205 275 -347 517 -416 102 -29 313 -32
413 -5 280 75 489 258 575 506 48 136 50 169 50 791 l0 585 -442 3 -443 2 0
-215 0 -215 195 0 195 0 0 -362 c0 -373 -3 -401 -42 -474 -26 -48 -104 -111
-161 -131 -75 -26 -197 -24 -260 5 -115 52 -170 128 -188 258 -6 52 -9 406 -7
1019 l3 940 22 55 c27 67 80 123 147 158 73 37 207 43 287 13 75 -29 140 -87
170 -153 20 -46 24 -72 27 -195 l4 -143 249 0 249 0 0 63 c0 117 -20 292 -40
365 -71 254 -256 445 -515 531 -78 26 -237 54 -285 50 -8 -1 -45 -5 -81 -9z"/>
</g>
</svg>
